<?xml version="1.0" encoding="utf-8"?>
<!-- Generator: Adobe Illustrator 16.0.4, SVG Export Plug-In . SVG Version: 6.00 Build 0)  -->
<!DOCTYPE svg PUBLIC "-//W3C//DTD SVG 1.1//EN" "http://www.w3.org/Graphics/SVG/1.1/DTD/svg11.dtd">
<svg version="1.1" id="Layer_1" xmlns="http://www.w3.org/2000/svg" xmlns:xlink="http://www.w3.org/1999/xlink" x="0px" y="0px"
	 width="250px" height="116.267px" viewBox="0 0 250 116.267" enable-background="new 0 0 250 116.267" xml:space="preserve">
<path fill="#FFFFFF" d="M59.917,63.707V13.17L41.886,34.768H29.893C13.378,34.809,0,48.254,0,64.775
	c0,16.557,13.419,29.977,29.973,29.977c16.547,0,29.966-13.42,29.966-29.977C59.939,64.423,59.931,64.057,59.917,63.707z
	 M30.334,77.774c-7.265,0-13.154-5.89-13.154-13.145c0-7.259,5.873-13.18,13.118-13.199l4.852,0h8.331v12.726
	c0.008,0.146,0.013,0.311,0.013,0.474C43.494,71.884,37.604,77.774,30.334,77.774z"/>
<path fill="#FFFFFF" d="M92.762,34.675c-16.556,0-29.974,13.419-29.974,29.974c0,16.514,13.378,29.96,29.89,30.017h12.003h18.022
	V65.718c0.015-0.35,0.023-0.717,0.023-1.069C122.727,48.094,109.311,34.675,92.762,34.675z M106.279,65.27v12.717h-8.341
	l-4.843-0.001c-7.255-0.019-13.127-5.93-13.127-13.189c0-7.254,5.89-13.152,13.162-13.152c7.263,0,13.16,5.898,13.16,13.152
	C106.289,64.96,106.285,65.125,106.279,65.27z"/>
<path fill="#FFFFFF" d="M157.668,34.689c-16.558,0-29.976,13.419-29.976,29.973c0,0.352,0.008,0.721,0.022,1.069v50.535
	l18.031-21.588h11.993c16.525-0.056,29.902-13.502,29.902-30.017C187.642,48.108,174.222,34.689,157.668,34.689z M157.324,78h-4.833
	h-8.353V65.284c-0.005-0.146-0.008-0.31-0.008-0.474c0-7.255,5.891-13.152,13.161-13.152c7.27,0,13.159,5.897,13.159,13.152
	C170.451,72.068,164.578,77.983,157.324,78z"/>
<path fill="#FFFFFF" d="M220.025,34.675c-16.556,0-29.975,13.419-29.975,29.974c0,16.514,13.381,29.96,29.901,30.017h11.995h18.031
	V65.718c0.012-0.35,0.021-0.717,0.021-1.069C250,48.094,236.581,34.675,220.025,34.675z M233.551,65.27v12.717H225.2l-4.832-0.001
	c-7.254-0.019-13.126-5.93-13.126-13.189c0-7.254,5.889-13.152,13.16-13.152c7.27,0,13.16,5.898,13.16,13.152
	C233.562,64.96,233.559,65.125,233.551,65.27z"/>
<path fill="#05B2D2" d="M75.976,26.341c7.254-0.027,13.124-5.938,13.124-13.187C89.099,5.886,83.211,0,75.943,0
	c-7.26,0-13.155,5.886-13.155,13.154c0,0.157,0.003,0.312,0.011,0.467v12.72h8.345H75.976z"/>
</svg>
